<mxfile host="65bd71144e">
    <diagram id="ukEoStTESBqo43G2Qg1d" name="Page-1">
        <mxGraphModel dx="1049" dy="551" grid="0" gridSize="10" guides="1" tooltips="1" connect="1" arrows="1" fold="1" page="1" pageScale="1" pageWidth="827" pageHeight="1169" math="0" shadow="0">
            <root>
                <mxCell id="0"/>
                <mxCell id="1" parent="0"/>
                <mxCell id="2" value="sequenceDiagram&#10;    Driver -&gt;&gt; Sample Pool: Request sdp_measurement&#10;    Sample Pool -&gt;&gt; Sample Pool: Allocate memory from heap&#10;    Sample Pool--&gt;&gt; Driver: Return empty sdp_measurement&#10;    Driver -&gt;&gt; Driver: Fills sdp_measurement&#10;    Driver -&gt;&gt; Sample Pool: Queue sdp_measurement in FIFO&#10;    Proc. Node Mgr -&gt;&gt; Sample Pool: Request sdp_measurement(s)&#10;    Sample Pool --&gt;&gt; Proc. Node Mgr: Return sdp_measurement from FIFO&#10;    Proc. Node Mgr -&gt;&gt; Proc. Node Mgr: Process sdp_measurement(s)&#10;    Proc. Node Mgr -&gt;&gt; Sample Pool: Free sdp_measurement memory&#10;    Sample Pool -&gt;&gt; Sample Pool: Frees sdp_measurement memory in heap&#10;&#10;" style="shadow=0;dashed=0;align=left;strokeWidth=1;shape=mxgraph.mermaid.abstract.mermaid;noLabel=1;" parent="1" vertex="1">
                    <mxGeometry x="40" y="40" width="760" height="480" as="geometry"/>
                </mxCell>
            </root>
        </mxGraphModel>
    </diagram>
</mxfile>